<?xml version="1.0" encoding="UTF-8" standalone="no"?>
<!-- Created with Inkscape (http://www.inkscape.org/) -->

<svg
   version="1.1"
   id="svg2"
   width="1333.3333"
   height="1133.3333"
   viewBox="0 0 1333.3333 1133.3333"
   sodipodi:docname="hydra.svg"
   inkscape:version="1.2 (1:1.2.1+202207142221+cd75a1ee6d)"
   xmlns:inkscape="http://www.inkscape.org/namespaces/inkscape"
   xmlns:sodipodi="http://sodipodi.sourceforge.net/DTD/sodipodi-0.dtd"
   xmlns="http://www.w3.org/2000/svg"
   xmlns:svg="http://www.w3.org/2000/svg">
  <defs
     id="defs6" />
  <sodipodi:namedview
     id="namedview4"
     pagecolor="#ffffff"
     bordercolor="#000000"
     borderopacity="0.25"
     inkscape:showpageshadow="2"
     inkscape:pageopacity="0.0"
     inkscape:pagecheckerboard="0"
     inkscape:deskcolor="#d1d1d1"
     showgrid="false"
     inkscape:lockguides="false"
     inkscape:zoom="0.42925544"
     inkscape:cx="-71.053264"
     inkscape:cy="740.81764"
     inkscape:window-width="1600"
     inkscape:window-height="866"
     inkscape:window-x="0"
     inkscape:window-y="-26"
     inkscape:window-maximized="1"
     inkscape:current-layer="g8" />
  <g
     inkscape:groupmode="layer"
     inkscape:label="Image"
     id="g8">
    <path
       style="fill:#ffffff;fill-opacity:1;stroke:none;stroke-width:1.333;stroke-dasharray:none"
       d="m 114.78227,1097.9488 c -8.39801,-3.3206 -7.68365,-17.2169 1.36784,-26.6081 3.80464,-3.9474 5.81475,-4.9957 9.54855,-4.9796 2.60117,0.011 5.6294,0.6021 6.7294,1.3129 1.75475,1.134 1.74237,1.295 -0.10092,1.313 -1.1555,0.011 -3.4055,1.409 -5,3.1063 -3.2146,3.4218 -3.94946,11.3304 -1.29909,13.9807 2.58763,2.5877 22.11979,2.0115 30.58874,-0.9022 16.86015,-5.8007 21.1446,-9.8938 21.1446,-20.2001 0,-7.3249 2.73808,-7.4695 17.66423,-0.9327 27.38774,11.9944 46.05014,14.4176 61.00244,7.9209 7.69364,-3.3428 10.15168,-6.2496 11.32293,-13.3898 0.80847,-4.9286 0.50389,-6.2419 -2.08725,-9 -4.785,-5.0934 -13.37099,-4.5091 -22.3223,1.519 l -7.05101,4.7485 2.92443,-5.7485 c 11.94229,-23.4746 33.67808,-38.2688 56.39184,-38.3825 10.98137,-0.055 16.73538,2.4388 26.38924,11.4371 18.23603,16.9977 32.98507,24.5303 48.0309,24.5303 13.15597,0 18.27727,-3.2729 18.35881,-11.7328 0.0783,-8.1182 -6.27457,-16.0796 -19.10568,-23.9434 l -6.4814,-3.9722 6.38559,-2.1758 c 9.11233,-3.1049 26.13565,-2.8722 35.91056,0.4909 8.93921,3.0755 14,3.4131 14,0.9338 0,-2.4242 -21.82657,-17.37484 -39.33333,-26.94228 -8.06667,-4.40844 -17.40762,-9.91378 -20.75767,-12.23408 -7.11503,-4.92802 -25.69713,-24.22558 -33.66252,-34.95859 -7.21688,-9.72444 -18.73684,-31.40267 -23.65342,-44.51093 -7.59742,-20.25573 -9.25972,-29.58033 -9.25972,-51.94177 0,-24.94496 1.9367,-32.57947 15.13934,-59.67948 11.6308,-23.87363 13.36591,-30.81923 13.3235,-53.33333 -0.0311,-16.45887 -0.34082,-18.74091 -3.61846,-26.65364 -6.93286,-16.73704 -22.15817,-27.42271 -37.51105,-26.32663 -4.4,0.31413 -11.48768,1.9204 -15.75039,3.56949 -15.35485,5.94026 -19.60113,19.06222 -12.12356,37.46462 3.00346,7.39153 3.26598,9.15909 1.99194,13.41148 -1.39208,4.64633 -2.47716,5.3894 -21.12606,14.46736 -23.98293,11.67446 -30.51401,15.719 -41.61742,25.77266 -13.66425,12.3724 -18.0356,20.23167 -24.85419,44.68548 -0.33596,1.20489 -1.18946,1.35152 -2.83386,0.48685 -1.29422,-0.68053 -5.44744,-1.65504 -9.22938,-2.1656 -6.69385,-0.90365 -7.03469,-1.16653 -12.84857,-9.9098 -7.80193,-11.73302 -11.60969,-19.30765 -11.60352,-23.08249 0.006,-3.91299 3.28452,-9.13166 11.77177,-18.74032 7.8715,-8.91153 13.35344,-16.67121 17.37411,-24.59301 2.48043,-4.88711 2.84913,-7.87993 2.84913,-23.12692 0,-17.05527 0.10774,-17.7106 4.11862,-25.05312 4.54706,-8.32409 13.77468,-20.82129 17.19598,-23.28901 6.88248,-4.96419 23.46339,-35.87744 27.85487,-51.93228 6.61665,-24.18995 1.98682,-40.77209 -13.83613,-49.55535 l -4,-2.22037 5.33333,0.82931 c 8.65653,1.34605 19.93066,7.09808 25.60593,13.06405 2.91103,3.06015 6.89057,9.35345 8.84343,13.98512 3.04188,7.21457 3.55064,10.31912 3.55064,21.66667 0,10.68316 0.37408,13.24545 1.93374,13.24545 1.06356,0 2.4518,-0.92571 3.08496,-2.05712 2.75628,-4.92519 19.08902,-20.06695 27.64796,-25.63189 19.6669,-12.78722 51.68667,-25.01422 62.98779,-24.05238 4.54557,0.38687 4.21176,0.64178 -6.42999,4.91 -15.35552,6.15884 -24.30344,11.31911 -34.80196,20.07031 -12.64601,10.54128 -12.14278,13.91189 1.5775,10.56607 3.3,-0.80475 11.88684,-1.37814 19.08186,-1.2742 20.70562,0.29908 39.37733,6.36654 58.91813,19.14574 8.47784,5.54431 23.9685,19.6568 21.57638,19.6568 -0.54454,0 -4.42199,-1.42218 -8.61655,-3.16042 -13.23481,-5.48452 -24.64213,-8.63136 -34.62649,-9.55211 l -9.66667,-0.89144 v 3.38696 c 0,3.02189 0.68264,3.48664 6.33333,4.31177 16.4474,2.40171 33.92107,11.60294 45.79488,24.11453 10.38628,10.94415 31.9658,42.14115 30.30122,43.80574 -0.31787,0.31785 -2.75167,-1.21384 -5.40844,-3.40379 -5.88747,-4.85295 -20.57579,-13.27791 -23.14908,-13.27791 -3.57576,0 -1.82007,5.55171 7.50298,23.72532 11.6998,22.80668 14.0518,32.75384 12.77074,54.01019 -1.03914,17.24178 -4.98044,30.06988 -13.9009,45.24438 -3.33449,5.67228 -6.23741,10.13855 -6.45092,9.92503 -0.2135,-0.21351 0.14535,-2.45445 0.79746,-4.97989 0.65212,-2.52543 1.59173,-13.1417 2.08804,-23.5917 l 0.90237,-19 h -3.87723 c -4.59728,0 -6.54816,3.40271 -12.61324,22 -3.25222,9.97222 -4.04154,15.04168 -4.67105,30 -1.17223,27.85395 2.97168,40.40378 18.86627,57.13666 14.58054,15.3495 30.57673,24.28939 58.71357,32.81357 25.55037,7.74061 73.81362,16.07396 102.21287,17.64853 l 14.2129,0.78803 3.4538,-6.81574 c 2.9674,-5.85585 3.4538,-8.53264 3.4538,-19.00676 0,-11.19314 -0.3547,-12.85818 -4.3334,-20.34172 -5.6849,-10.69302 -15.6785,-20.63537 -33.6666,-33.49418 -16.58285,-11.85421 -46.30349,-40.28075 -57.91693,-55.39505 -24.85537,-32.34803 -42.03113,-70.39079 -49.45556,-109.5396 -0.69743,-3.67752 -2.17839,-15.764 -3.29103,-26.85885 -1.82065,-18.15503 -1.81417,-22.31079 0.0648,-41.55367 3.35942,-34.40414 5.77972,-44.52885 20.5697,-86.04787 13.16705,-36.96306 18.86853,-69.81592 16.05108,-92.48892 -3.08874,-24.85608 -11.25512,-41.78827 -27.95815,-57.96839 -15.60693,-15.11836 -33.48523,-23.2628 -58.73061,-26.75466 -16.48228,-2.27978 -21.37132,-0.9776 -33.422,8.90177 -10.98162,9.00295 -23.78259,13.97573 -29.72159,11.54592 -1.66121,-0.67964 -10.78349,-9.41339 -20.27173,-19.40832 -26.44684,-27.85915 -39.11617,-37.24657 -61.09257,-45.26696 -9.79108,-3.5733 -12.12963,-3.89377 -28.41398,-3.89377 h -17.74479 v -12.18096 -12.18096 l 9.99477,-12.42644 c 12.15961,-15.11797 19.26494,-19.909 27.47013,-18.52275 3.01955,0.51015 10.0752,3.02147 15.67925,5.58072 18.81642,8.59304 32.20063,12.39706 43.6183,12.39706 9.48196,0 11.25537,-0.45631 20.7278,-5.33334 9.7932,-5.04218 11.00397,-5.33333 22.17901,-5.33333 12.69076,0 21.9913,2.66783 42.33073,12.14239 8.18551,3.81298 11.03375,4.41885 23.15987,4.92645 29.41876,1.23147 54.9769,-6.71309 71.11401,-22.10528 4.24936,-4.05321 7.719,-6.82815 7.71029,-6.16652 -0.0445,3.38973 -3.99049,15.33007 -7.00689,21.20296 -5.91217,11.51088 -21.07685,24.12888 -32.78911,27.28267 -4.09112,1.10162 -5.5215,2.16429 -5.5215,4.10205 0,1.46588 0.90233,2.61528 2.05312,2.61528 1.12921,0 4.27921,1.13249 7,2.51665 2.72078,1.38418 14.24688,4.95736 25.61354,7.94043 23.94273,6.28354 50.20591,15.07277 67.33333,22.53376 12.11641,5.27812 24.80771,11.8246 20.13811,10.38773 -6.275,-1.93085 -21.47496,-3.32791 -36.47144,-3.35216 -14.68268,-0.0237 -16.33173,0.2094 -16.31752,2.30692 0.0107,1.61115 4.65355,4.76665 15,10.19524 8.24131,4.32405 18.88419,10.73816 23.65085,14.25357 10.16981,7.50024 30.83271,28.30679 37.74931,38.01171 4.841,6.79276 15.584,26.76209 15.584,28.96808 0,0.64292 -2.744,-2.48146 -6.0979,-6.94308 -12.3569,-16.43829 -26.0453,-24.81885 -40.5379,-24.81885 -11.77612,0 -11.99984,2.30437 -1.048,10.79533 17.2022,13.33693 28.0279,28.3342 33.1758,45.96002 3.62,12.39434 0.9241,75.203 -2.9644,69.06516 -0.6344,-1.00128 -1.1626,-3.47545 -1.1738,-5.49816 -0.011,-2.02269 -1.5075,-9.97133 -3.3251,-17.66361 -4.3034,-18.21259 -10.1562,-29.99208 -14.902,-29.99208 -2.5721,0 -2.2712,5.01616 1.5273,25.46079 5.637,30.33948 4.3421,59.42522 -3.5855,80.53921 -2.8477,7.58438 -8.6843,18.82609 -12.53786,24.1488 l -3.86395,5.33705 0.44792,-28.4096 c 0.42462,-26.93193 0.31939,-28.40959 -2.02308,-28.40959 -2.93166,0 -6.52874,8.41087 -12.44746,29.10527 -7.86771,27.50883 -8.64608,33.30988 -8.61806,64.22807 0.0259,28.57986 0.0393,28.71046 4.42318,43.13373 7.75856,25.52624 24.36114,52.71469 44.78031,73.33241 23.2074,23.43302 48.8821,41.03036 86.7705,59.47212 60.865,29.62533 64.6208,31.30765 66.2522,29.67622 2.5974,-2.59738 -2.3984,-20.60178 -9.8821,-35.61449 -7.8249,-15.69707 -39.106,-59.08976 -42.7034,-59.2375 -2.0477,-0.0841 -2.3333,1.29921 -2.3333,11.30009 0,12.22249 4.2181,39.39068 7.3951,47.63106 2.9037,7.53127 2.4944,7.35318 -4.3215,-1.8803 -8.1167,-10.99568 -17.0619,-27.19168 -21.162,-38.3156 -4.834,-13.11493 -8.9713,-40.05307 -7.9093,-51.49775 2.089,-22.51128 4.0998,-29.45438 15.252,-52.66342 5.9151,-12.30998 11.1277,-24.2466 11.5835,-26.52584 0.7674,-3.83679 0.5556,-4.14407 -2.8559,-4.14407 -4.4835,0 -22.0034,11.42229 -33.4298,21.79493 l -8.1146,7.36616 5.2659,-10.24721 c 2.8962,-5.63597 10.4405,-18.04721 16.765,-27.58054 27.3823,-41.2746 60.9241,-65.91694 104.1842,-76.54159 11.1742,-2.74439 11.6315,-4.89387 2.3945,-11.25561 l -7.0702,-4.86947 h -16.0509 c -18.8637,0 -33.9884,2.89396 -51.8437,9.91977 -6.5547,2.57918 -12.1044,4.50259 -12.3328,4.27423 -0.2283,-0.22836 1.9815,-2.3412 4.9107,-4.6952 7.2295,-5.8098 28.144,-16.24197 41.9799,-20.93961 6.4172,-2.1788 11.3599,-4.60759 11.3599,-5.58215 0,-0.94884 -2.25,-3.63602 -5,-5.97149 -10.5616,-8.96957 -35.6244,-34.10023 -43.2219,-43.33888 -9.3139,-11.32584 -11.7887,-12.16803 -11.7542,-4 0.05,11.7794 6.4072,42.68372 11.3143,55 1.747,4.38472 -8.2882,-5.71503 -14.0742,-14.16472 -12.3573,-18.04617 -19.0461,-32.49108 -23.832,-51.46661 -5.4185,-21.48402 -2.2201,-74.72521 6.5402,-108.87084 1.4819,-5.7762 2.6944,-10.7262 2.6944,-11 0,-0.2738 -1.5757,-0.49783 -3.5016,-0.49783 -4.022,0 -25.2174,11.0206 -37.5158,19.50646 -8.1698,5.63706 -8.3076,5.67844 -6.3581,1.90845 4.716,-9.11972 26.8156,-36.4748 39.5549,-48.96132 19.8024,-19.40953 40.2655,-32.67389 61.6207,-39.94316 13.9798,-4.75868 35.0226,-9.44877 46.8666,-10.44576 12.9749,-1.0922 15.3333,-1.71665 15.3333,-4.0599 0,-1.83559 -2.8683,-2.82622 -26.6666,-9.20991 -23.1985,-6.22277 -57.3297,-4.82396 -80.9995,3.31965 -4.091,1.4075 -7.6669,2.3302 -7.9467,2.05048 -0.6471,-0.64713 12.238,-7.94252 19.0796,-10.80261 10.5062,-4.39205 28.249,-8.585 42.7423,-10.10077 27.7871,-2.9061 73.8248,2.49712 103.2743,12.12074 16.6007,5.42488 17.1833,5.35414 17.1833,-2.08704 0,-9.46518 -5.9422,-19.55816 -18.8699,-32.05121 -6.1215,-5.91576 -15.7741,-13.97172 -21.4502,-17.90216 -5.676,-3.93044 -10.099,-7.36729 -9.8288,-7.63746 2.3226,-2.32263 33.2103,11.03556 36.5578,15.81039 0.9583,1.36683 2.383,2.48514 3.1661,2.48514 0.783,0 12.4659,10.79332 25.9618,23.98514 13.496,13.19184 26.4713,24.9801 28.834,26.19612 7.367,3.79163 30.6662,18.03042 37.1412,22.69807 5.93,4.27479 10.488,5.71647 10.488,3.31733 0,-0.62517 -2.9787,-7.45153 -6.6194,-15.1697 -10.1886,-21.59984 -17.5077,-46.12067 -19.8075,-66.36029 -1.5112,-13.29942 -0.4669,-22.61936 3.3562,-29.95308 l 2.7558,-5.28641 -0.088,11.28641 c -0.1139,14.56036 4.1866,29.0867 15.6081,52.72215 15.4668,32.00686 35.2877,58.26494 49.4617,65.5255 19.8317,10.15864 42.1219,29.01035 48.12401,40.70047 1.7871,3.48062 4.3441,11.88062 5.6823,18.66667 1.3382,6.78605 3.4104,14.22223 4.6051,16.52484 4.5006,8.67501 19.9579,22.46891 37.8412,33.76908 9.6723,6.11175 20.1723,13.74755 23.3334,16.96843 5.7162,5.82444 5.7471,5.9082 5.6963,15.46603 -0.036,6.72258 -1.3762,14.29122 -4.4614,25.19078 -4.1258,14.57554 -4.6716,15.67196 -8.4596,16.99244 -2.227,0.77636 -7.8333,3.80142 -12.4583,6.72237 -7.7669,4.90527 -8.4714,5.11445 -9.2252,2.73931 -1.9576,-6.16788 -14.2591,-22.70298 -22.5138,-30.262 -21.6836,-19.85608 -47.02201,-29.318 -99.49731,-37.15445 -16.0707,-2.39994 -24.105,-4.17976 -25.8125,-5.7182 -1.3635,-1.22852 -4.2135,-5.66658 -6.3333,-9.86232 -3.7239,-7.37066 -3.8542,-8.28466 -3.8542,-27.02651 0,-18.17951 -0.2002,-19.71023 -3.188,-24.37135 -4.0657,-6.34293 -10.069,-11.88785 -20.1453,-18.60716 -20.4985,-13.66921 -39.132,-20.13579 -61.3334,-21.28517 -17.0032,-0.88026 -26.8466,1.03362 -40.4603,7.86685 -9.5554,4.79616 -15.1531,10.9077 -21.3843,23.34728 -4.0342,8.05331 -4.1554,8.81824 -4.1554,26.21943 0,16.90497 0.2398,18.55216 4.2181,28.9702 7.7276,20.23644 18.8396,37.69957 37.5131,58.95402 17.4039,19.80928 16.1988,19.09938 54.2688,31.96944 29.0003,9.80395 36.0587,11.70264 48,12.91203 7.7,0.77984 19.4,1.96303 26,2.62931 6.6,0.66629 13.35,1.62014 15,2.11969 2.3892,0.72333 3,0.38387 3,-1.66724 0,-1.63779 -4.2615,-5.98767 -11.7044,-11.94721 -26.1039,-20.9015 -39.2409,-43.15492 -33.7209,-57.12164 0.8501,-2.15095 1.2471,-1.53759 2.0525,3.17154 1.1142,6.51492 4.747,13.57742 9.9278,19.30099 16.6872,18.43524 58.6827,36.8608 84.0132,36.8608 11.9393,0 34.35821,4.95199 43.43181,9.59339 9.4644,4.8413 16.29,10.99846 23.4824,21.18244 2.8909,4.09337 7.0646,8.77952 9.2749,10.41365 9.511,7.03182 31.8897,12.62417 57.2427,14.30476 17.4161,1.15448 24.2996,4.7598 28.8873,15.13022 1.7945,4.05655 4.5257,14.65324 6.0693,23.5482 l 2.8064,16.17268 -5.3987,6.49399 c -2.9693,3.57171 -6.3813,8.444 -7.5824,10.82733 -1.201,2.38334 -2.4669,4.33334 -2.8131,4.33334 -0.3461,0 -3.6603,-2.17754 -7.3648,-4.83898 -13.6675,-9.81912 -36.3836,-16.48848 -56.1742,-16.49253 -19.7753,-0.004 -38.7165,4.03256 -72.71301,15.49608 -20.3182,6.85121 -21.8424,7.17228 -25.3753,5.34532 -7.188,-3.71701 -15.6269,-14.37573 -20.1973,-25.50989 -6.4968,-15.82718 -9.5672,-19.90182 -17.8561,-23.69659 -8.2367,-3.77091 -21.119,-6.30341 -32.064,-6.30341 -9.4564,0 -9.5653,0.92333 -1.7142,14.53565 6.3922,11.08308 8.3882,15.46836 14.321,31.46435 9.6148,25.92298 13.4964,53.51654 11.7188,83.30529 -6.845,114.70451 -9.7383,135.21007 -25.684,182.02803 -8.7672,25.74149 -21.6845,51.17971 -37.7239,74.29051 -3.928,5.65978 -7.1418,10.90978 -7.1418,11.66666 0,1.93396 13.957,1.68488 30.7308,-0.54844 59.5538,-7.92916 89.9699,-21.02485 101.3936,-43.65521 3.506,-6.94524 3.8756,-8.9452 3.8756,-20.96937 0,-10.96186 -0.6078,-14.97687 -3.4673,-22.90403 -5.2784,-14.63306 -16.6357,-34.54678 -19.7029,-34.54678 -2.2875,0 -2.4462,0.71508 -1.6543,7.45324 0.8757,7.4507 6.3983,32.17977 8.3107,37.21342 1.8821,4.95392 -3.3193,-0.53981 -10.2863,-10.86437 -10.5632,-15.65405 -17.1999,-35.10783 -17.1999,-50.41729 0,-9.54902 3.0966,-25.2247 7.2666,-36.78486 6.8795,-19.07148 3.1709,-19.57488 -9.3326,-1.26681 -5.0083,7.33333 -9.2735,13.33333 -9.4781,13.33333 -1.8234,0 14.831,-33.3904 21.9462,-43.99999 9.0604,-13.51032 22.4073,-26.73184 32.9202,-32.61099 11.3154,-6.32793 11.6718,-9.2912 1.011,-8.40695 -7.7905,0.64619 -18.3743,4.92963 -32,12.951 -3.85,2.26648 -7,3.56952 -7,2.89564 0,-2.83926 20.0801,-22.44993 28.8808,-28.20561 16.5643,-10.83309 37.70971,-17.2694 56.78591,-17.28468 8.3072,-0.007 8.3058,-2.46137 0,-7.79395 -9.2976,-5.96622 -20.0275,-10.4075 -33.6505,-13.92842 -6.63581,-1.71506 -11.65321,-3.53027 -11.14961,-4.03383 2.761,-2.76104 29.89691,1.29067 45.87131,6.84915 14.2623,4.96274 27.3396,11.83225 35.5414,18.66996 10.2011,8.50449 13.0024,8.95121 11.9065,1.89868 -2.4602,-15.83208 -2.482,-20.07408 -0.1391,-27.14879 4.4907,-13.56029 12.025,-21.40592 24.9286,-25.95854 l 5.3771,-1.89718 -5.5711,5.00226 c -10.2366,9.19137 -11.351,24.24807 -3.1685,42.80769 5.8308,13.22533 21.9911,35.04958 30.77,41.55446 8.6907,6.43951 20.0845,19.11058 22.7557,25.30676 1.4724,3.41526 2.9863,11.03364 3.5142,17.68461 0.8757,11.03342 1.2462,12.11772 6.6484,19.45608 3.1466,4.27431 10.5726,11.89518 16.5024,16.93524 15.8693,13.48836 16.3547,16.0003 6.9644,36.03875 -4.344,9.26996 -5.7934,11.22687 -8.3437,11.26591 -1.6976,0.026 -4.5865,0.90472 -6.4198,1.95274 -5.159,2.94914 -6.129,2.46554 -8.6915,-4.33333 -5.3822,-14.27985 -18.5087,-27.88652 -34.8084,-36.08187 -5.816,-2.92422 -18.6578,-7.83985 -28.5373,-10.92364 -9.8796,-3.08377 -19.0851,-6.68297 -20.4567,-7.99821 -2.6748,-2.56493 -3.0072,-7.57757 -1.4408,-21.73139 0.4708,-4.2543 0.4745,-9.25543 0.01,-11.11363 -1.1272,-4.49135 -6.7182,-9.564 -14.0266,-12.72626 -12.0928,-5.23238 -31.9736,0.22062 -39.2886,10.77626 -9.016,13.01003 -10.965,30.27707 -5.5845,49.47478 4.3115,15.38316 7.7342,22.78335 15.4347,33.37049 12.5433,17.24552 18.7601,34.38679 18.6961,51.55001 -0.1022,27.38864 -15.377,60.15208 -41.0264,87.9985 -14.4478,15.68536 -24.41091,23.10726 -45.41671,33.83226 -15.0107,7.6642 -19.143,10.7356 -17.1393,12.7393 0.3951,0.395 8.4192,-2.0875 17.8314,-5.5168 15.7535,-5.7396 37.29691,-10.3663 41.59611,-8.9333 0.9983,0.3328 -0.5552,2.4681 -3.8433,5.2826 -7.589,6.4959 -11.97301,13.8341 -11.97301,20.0411 0,6.4274 1.87461,8.2931 8.33291,8.2931 6.2081,0 11.521,-2.5837 20.2569,-9.8512 6.0607,-5.0419 7.1849,-5.4707 14,-5.3398 5.6488,0.1085 9.6407,1.2671 16.7938,4.8742 19.1799,9.6719 62.2516,26.17 82.2161,31.4918 13.0066,3.4672 18.0562,4.1584 30.3777,4.1584 13.0198,0 15.5411,-0.3868 21.1927,-3.2507 19.997,-10.1332 11.2803,-30.0606 -14.3698,-32.8513 -6.1108,-0.6648 -9.8012,-0.3985 -13,0.938 -3.9524,1.6515 -4.4618,2.4403 -4.4226,6.8485 0.063,7.1187 3.7121,10.9821 10.3718,10.9821 4.5461,0 5.7265,-0.6317 8.0971,-4.3333 l 2.7752,-4.3333 0.022,4.1266 c 0.028,5.1498 -2.6679,7.5538 -11.8087,10.5305 -5.9642,1.9422 -8.0369,2.0717 -12.3722,0.7728 -7.1765,-2.1501 -13.1302,-10.3971 -13.1302,-18.1876 0,-8.3425 0.8798,-9.6416 9.4631,-13.9745 6.8313,-3.4484 9.2116,-3.9345 19.2676,-3.9345 10.2233,0 12.6956,0.525 22.6892,4.8182 19.7878,8.5008 28.5801,18.9138 28.5801,33.8485 0,12.2449 -6.6875,22.6849 -18.2671,28.5174 -3.9052,1.9669 -50.215,2.1372 -546.00001,2.0074 -384.81639,-0.1008 -542.78889,-0.5594 -545.37866,-1.5834 z M 813.45479,778.67403 c 10.6036,-22.15369 16.8389,-43.68906 19.7251,-68.12671 2.4036,-20.35179 1.6999,-32.87412 -2.8962,-51.53995 -4.4284,-17.98434 -24.1586,-53.18862 -30.7346,-54.83909 -4.9513,-1.24268 -28.0009,14.85393 -43.121,30.11343 -14.8108,14.94718 -21.6761,26.89182 -24.2189,42.13733 -1.4118,8.4646 -1.2735,10.59296 1.3745,21.15114 4.8951,19.51708 11.2838,29.56723 36.4368,57.31856 8.6998,9.59858 19.2506,22.69255 23.4461,29.09771 4.2299,6.45769 8.5688,11.65506 9.7397,11.66666 1.3986,0.0139 4.8594,-5.71986 10.2485,-16.97908 z m 335.88951,2.83028 c 1.5298,-3.98652 -4.5952,-19.4789 -10.3439,-26.16361 -8.7502,-10.17486 -15.9057,-8.18636 -15.9057,4.42014 0,2.49205 0.6878,3.9132 1.8939,3.9132 1.8738,0 18.1061,17.01705 18.1061,18.98149 0,1.98508 5.4299,0.98485 6.2496,-1.15122 z M 188.47719,713.2813 c 2.66507,-4.616 7.34426,-10.9387 10.39822,-14.05046 3.05395,-3.11176 5.55265,-6.4642 5.55265,-7.4499 0,-0.98568 -1.24894,-3.81297 -2.77542,-6.28286 -7.72739,-12.5032 -21.0127,2.7809 -23.25965,26.75912 -0.9619,10.26496 -0.95198,10.31077 2.13614,9.86484 2.19682,-0.31722 4.51702,-2.898 7.94806,-8.84074 z M 1035.0947,556.44301 c 0,-2.0241 -5.1827,-8.73338 -10.6667,-13.80858 -4.6095,-4.26593 -22.1306,-12.27125 -28.88361,-13.19687 -3.0694,-0.4207 -7.7262,-0.36241 -10.3485,0.12947 -4.5915,0.86136 -4.7678,1.1068 -4.7678,6.63507 0,3.15733 0.662,7.63965 1.4711,9.96069 l 1.4711,4.22006 9.5289,-0.15404 c 7.18171,-0.11613 12.64881,0.82715 22.19551,3.82939 14.4372,4.54025 20,5.20355 20,2.38475 z M 988.42809,372.96935 c 0,-16.65242 -21.6091,-42.62864 -35.462,-42.62864 -3.9312,0 -6.7237,5.06599 -7.9696,14.45816 -0.8542,6.4393 -0.7292,6.87518 1.9708,6.87518 5.2701,0 15.3305,6.47812 26.7941,17.25342 6.2333,5.85907 12.0833,10.67394 13,10.69971 1.1186,0.0315 1.6667,-2.15796 1.6667,-6.65783 z M 344.68843,302.75793 c 4.85384,-4.65027 5.12884,-11.20028 0.59496,-14.17099 -7.36123,-4.82325 -30.69041,-5.93133 -43.18867,-2.05133 -3.2486,1.00849 -4.33333,2.11556 -4.33333,4.42253 0,2.80479 1.28256,3.39548 14.48283,6.6703 7.96554,1.97614 16.21554,4.70098 18.33333,6.05517 5.47501,3.50095 9.78562,3.21817 14.11088,-0.92568 z"
       id="path293" />
  </g>
</svg>
